<?xml version="1.0" encoding="iso-8859-1"?>
<!-- Generator: Adobe Illustrator 19.0.0, SVG Export Plug-In . SVG Version: 6.00 Build 0)  -->
<svg version="1.1" id="Layer_1" xmlns="http://www.w3.org/2000/svg" xmlns:xlink="http://www.w3.org/1999/xlink" x="0px" y="0px"
	 viewBox="0 0 417.118 417.118" style="enable-background:new 0 0 417.118 417.118;" xml:space="preserve">
<g>
	<g>
		<g id="XMLID_22_">
			<g>
				<path style="fill:#1EA6C6;" d="M255.671,248.698v27.62h-6.73v98.93c-24.6,9.12-51.2,14.09-78.96,14.09
					c-58.79,0-112.38-22.3-152.75-58.91v-0.13c0-60.89,35.63-113.45,87.17-137.98c19.37,19.32,42.05,29.73,65.58,29.73
					c23.54,0,46.21-10.41,65.59-29.73c10.77,5.13,20.85,11.48,30.05,18.88C259.291,222.258,255.671,235.068,255.671,248.698z"/>
				<path style="fill:#FCD09F;" d="M169.978,0c46.66,0,84.49,37.82,84.49,84.48c0,46.67-37.83,110.49-84.49,110.49
					s-84.49-63.82-84.49-110.49C85.488,37.82,123.318,0,169.978,0z"/>
			</g>
		</g>
	</g>
	<g>
		<path style="fill:#B3B3B3;" d="M393.16,290.316h-15V248.7c0-12.487-4.861-24.225-13.688-33.052
			c-8.827-8.832-20.566-13.694-33.057-13.694c-25.775,0-46.746,20.97-46.746,46.746v41.616h-15V248.7
			c0-34.047,27.699-61.746,61.746-61.746c16.498,0,32.005,6.424,43.664,18.089c11.659,11.659,18.081,27.164,18.081,43.657V290.316z"
			/>
		<rect x="262.941" y="290.316" style="fill:#EF806F;" width="136.946" height="126.802"/>
	</g>
</g>
<g>
</g>
<g>
</g>
<g>
</g>
<g>
</g>
<g>
</g>
<g>
</g>
<g>
</g>
<g>
</g>
<g>
</g>
<g>
</g>
<g>
</g>
<g>
</g>
<g>
</g>
<g>
</g>
<g>
</g>
</svg>
